# Blender 3.5.1
# www.blender.org
mtllib Lamp.mtl
o Lampa
v 0.002587 0.095532 0.094748
v 0.002587 0.000000 0.151703
v -0.065762 0.095532 0.066437
v -0.106035 0.000000 0.106710
v -0.094073 0.095532 -0.001913
v -0.151028 0.000000 -0.001913
v -0.065762 0.095532 -0.070262
v -0.106035 0.000000 -0.110535
v 0.002587 0.095532 -0.098573
v 0.002587 0.000000 -0.155528
v 0.070937 0.095532 -0.070262
v 0.111210 0.000000 -0.110535
v 0.099248 0.095532 -0.001913
v 0.156203 0.000000 -0.001913
v 0.070937 0.095532 0.066437
v 0.111210 0.000000 0.106710
v 0.002587 0.066590 0.151703
v -0.106035 0.066590 0.106710
v -0.151028 0.066590 -0.001913
v -0.106035 0.066590 -0.110535
v 0.002587 0.066590 -0.155528
v 0.111210 0.066590 -0.110535
v 0.156203 0.066590 -0.001913
v 0.111210 0.066590 0.106710
v 0.002587 0.095532 0.125674
v -0.087630 0.095532 0.088305
v -0.124999 0.095532 -0.001913
v -0.087630 0.095532 -0.092130
v 0.002587 0.095532 -0.129499
v 0.092805 0.095532 -0.092130
v 0.130174 0.095532 -0.001913
v 0.092805 0.095532 0.088305
v 0.002587 2.016511 0.094748
v -0.065762 2.016511 0.066437
v -0.094073 2.016511 -0.001913
v -0.065762 2.016511 -0.070262
v 0.002587 2.016511 -0.098573
v 0.070937 2.016511 -0.070262
v 0.099248 2.016511 -0.001913
v 0.070937 2.016511 0.066437
v 0.002587 2.053263 0.152997
v -0.106950 2.053263 0.107625
v -0.152322 2.053263 -0.001913
v -0.106950 2.053263 -0.111450
v 0.002587 2.053263 -0.156823
v 0.112125 2.053263 -0.111450
v 0.157497 2.053263 -0.001913
v 0.112125 2.053263 0.107625
v 0.002587 2.094191 0.112688
v -0.078447 2.094191 0.079122
v -0.112013 2.094191 -0.001913
v -0.078447 2.094191 -0.082947
v 0.002587 2.094191 -0.116513
v 0.083622 2.094191 -0.082947
v 0.117188 2.094191 -0.001913
v 0.083622 2.094191 0.079122
v 0.002587 2.094191 0.152997
v -0.106950 2.094191 0.107625
v -0.152322 2.094191 -0.001913
v -0.106950 2.094191 -0.111450
v 0.002587 2.094191 -0.156823
v 0.112125 2.094191 -0.111450
v 0.157497 2.094191 -0.001913
v 0.112125 2.094191 0.107625
v 0.002587 2.059316 0.112688
v -0.078447 2.059316 0.079122
v -0.112013 2.059316 -0.001913
v -0.078447 2.059316 -0.082947
v 0.002587 2.059316 -0.116513
v 0.083622 2.059316 -0.082947
v 0.117188 2.059316 -0.001913
v 0.083622 2.059316 0.079122
vn 0.3827 -0.0000 -0.9239
vn 0.9239 -0.0000 -0.3827
vn 0.9239 -0.0000 0.3827
vn 0.3827 -0.0000 0.9239
vn -0.3827 -0.0000 0.9239
vn -0.9239 -0.0000 0.3827
vn -0.0000 1.0000 -0.0000
vn -0.9239 -0.0000 -0.3827
vn -0.3827 -0.0000 -0.9239
vn 0.2943 -0.6391 -0.7106
vn 0.7106 -0.6391 -0.2943
vn 0.7106 -0.6391 0.2943
vn 0.2943 -0.6391 0.7106
vn -0.2943 -0.6391 0.7106
vn -0.7106 -0.6391 0.2943
vn -0.7106 -0.6391 -0.2943
vn -0.2943 -0.6391 -0.7106
vn -0.0000 -1.0000 -0.0000
vn -0.2158 0.8258 -0.5210
vn -0.5210 0.8258 0.2158
vn 0.2158 0.8258 0.5210
vn 0.5210 0.8258 -0.2158
vn -0.5210 0.8258 -0.2158
vn -0.2158 0.8258 0.5210
vn 0.5210 0.8258 0.2158
vn 0.2158 0.8258 -0.5210
vt 0.093428 0.111192
vt 0.194761 0.000000
vt 0.395481 0.184810
vt 0.443279 0.487271
vt 0.242929 0.000000
vt 0.056505 0.113810
vt 0.231776 0.000000
vt 0.443279 0.428445
vt 0.550554 0.285231
vt 0.395481 0.243635
vt 0.029214 0.098975
vt 0.269103 0.000000
vt 0.550554 0.326827
vt 0.431935 0.285231
vt 0.027542 0.075379
vt 0.306118 0.000000
vt 0.550554 0.385653
vt 0.483488 0.285231
vt 0.052467 0.056843
vt 0.332292 0.000000
vt 0.550554 0.427248
vt 0.037800 0.004160
vt 0.519941 0.243635
vt 0.089390 0.054225
vt 0.332292 0.000000
vt 0.096478 0.000000
vt 0.395481 0.528867
vt 0.519941 0.184810
vt 0.116681 0.069060
vt 0.358466 0.000000
vt 0.483488 0.143214
vt 0.395481 0.487271
vt 0.118353 0.092656
vt 0.395481 0.000000
vt 0.168587 0.000000
vt 0.431935 0.143214
vt 0.395481 0.428445
vt 0.443279 0.528867
vt 0.476597 0.487271
vt 0.476597 0.428445
vt 0.517237 0.285231
vt 0.517237 0.326827
vt 0.517237 0.385653
vt 0.000000 0.059179
vt 0.517237 0.427248
vt 0.039612 0.029721
vt 0.428799 0.528867
vt 0.098290 0.025562
vt 0.141662 0.049137
vt 0.428799 0.487271
vt 0.428799 0.428445
vt 0.476597 0.528867
vt 0.491077 0.482287
vt 0.099980 0.119887
vt 0.491077 0.433429
vt 0.502756 0.297263
vt 0.051245 0.123341
vt 0.502756 0.331811
vt 0.015222 0.103761
vt 0.502756 0.380669
vt 0.013014 0.072615
vt 0.045915 0.048148
vt 0.094650 0.044694
vt 0.443279 0.482287
vt 0.130673 0.064274
vt 0.443279 0.433429
vt 0.491077 0.516835
vt 0.132881 0.095420
vt 0.410222 0.053099
vt 0.194761 0.961134
vt 0.242929 0.961134
vt 0.410222 0.090115
vt 0.231776 0.961134
vt 0.269103 0.961134
vt 0.433160 0.116288
vt 0.306118 0.961134
vt 0.465599 0.116288
vt 0.104739 0.794240
vt 0.332292 0.961134
vt 0.488537 0.090115
vt 0.141662 0.791623
vt 0.332292 0.961134
vt 0.488537 0.053099
vt 0.358466 0.961134
vt 0.465599 0.026926
vt 0.395481 0.961134
vt 0.168587 0.961134
vt 0.433160 0.026926
vt 0.395481 0.041946
vt 0.183608 0.979523
vt 0.395481 0.101268
vt 0.242929 0.979523
vt 0.541467 0.000000
vt 0.432242 0.143214
vt 0.541467 0.041946
vt 0.484229 0.143214
vt 0.541467 0.101268
vt 0.520990 0.101268
vt 0.541467 0.143214
vt 0.395481 0.386499
vt 0.520990 0.041946
vt 0.523234 0.427248
vt 0.395481 0.327178
vt 0.484229 0.000000
vt 0.523234 0.469195
vt 0.432242 0.000000
vt 0.141662 0.979523
vt 0.523234 0.528516
vt 0.537390 0.143214
vt 0.490848 0.334896
vt 0.523234 0.502165
vt 0.490848 0.378781
vt 0.471017 0.409812
vt 0.523234 0.471133
vt 0.442971 0.409812
vt 0.519941 0.249162
vt 0.523234 0.427248
vt 0.423139 0.378781
vt 0.519941 0.218131
vt 0.423139 0.334896
vt 0.519941 0.174246
vt 0.442971 0.303864
vt 0.519941 0.143214
vt 0.537390 0.218131
vt 0.471017 0.303864
vt 0.537390 0.174245
vt 0.183608 1.000000
vt 0.502756 0.327178
vt 0.242929 1.000000
vt 0.520990 0.000000
vt 0.502756 0.386499
vt 0.520990 0.041946
vt 0.475949 0.428445
vt 0.520990 0.101268
vt 0.438038 0.428445
vt 0.520990 0.143214
vt 0.411231 0.386499
vt 0.502756 0.427248
vt 0.411231 0.327178
vt 0.502756 0.469195
vt 0.438038 0.285231
vt 0.141662 1.000000
vt 0.502756 0.528516
vt 0.475949 0.285231
vt 0.554839 0.143214
vt 0.477428 0.334896
vt 0.540683 0.502165
vt 0.477428 0.378781
vt 0.457596 0.409812
vt 0.540683 0.471133
vt 0.429550 0.409812
vt 0.537390 0.249162
vt 0.540683 0.427248
vt 0.409719 0.378781
vt 0.537390 0.218131
vt 0.409719 0.334896
vt 0.537390 0.174246
vt 0.429550 0.303864
vt 0.537390 0.143214
vt 0.554839 0.218131
vt 0.457596 0.303864
vt 0.554839 0.174245
s 0
usemtl Lamp
f 17/39/1 2/4/1 4/8/1 18/40/1
f 18/41/2 4/9/2 6/13/2 19/42/2
f 19/42/3 6/13/3 8/17/3 20/43/3
f 20/43/4 8/17/4 10/21/4 21/45/4
f 21/46/5 10/22/5 12/26/5 22/48/5
f 22/47/6 12/27/6 14/32/6 23/50/6
f 4/10/7 2/3/7 16/36/7 14/31/7 12/28/7 10/23/7 8/18/7 6/14/7
f 23/50/8 14/32/8 16/37/8 24/51/8
f 24/52/9 16/38/9 2/4/9 17/39/9
f 3/5/2 5/12/2 35/74/2 34/71/2
f 26/55/10 25/53/10 17/39/10 18/40/10
f 27/58/11 26/56/11 18/41/11 19/42/11
f 28/60/12 27/58/12 19/42/12 20/43/12
f 29/62/13 28/61/13 20/44/13 21/46/13
f 30/63/14 29/62/14 21/46/14 22/48/14
f 31/65/15 30/63/15 22/48/15 23/49/15
f 32/66/16 31/64/16 23/50/16 24/51/16
f 25/53/17 32/67/17 24/52/17 17/39/17
f 3/6/18 1/1/18 25/54/18 26/57/18
f 5/11/18 3/6/18 26/57/18 27/59/18
f 7/15/18 5/11/18 27/59/18 28/61/18
f 9/19/18 7/15/18 28/61/18 29/62/18
f 11/24/18 9/19/18 29/62/18 30/63/18
f 13/29/18 11/24/18 30/63/18 31/65/18
f 15/33/18 13/29/18 31/65/18 32/68/18
f 1/1/18 15/33/18 32/68/18 25/54/18
f 40/88/19 33/69/19 41/89/19 48/106/19
f 13/30/8 15/34/8 40/86/8 39/84/8
f 9/19/5 11/24/5 38/81/5 37/78/5
f 5/12/3 7/16/3 36/76/3 35/74/3
f 1/2/1 3/7/1 34/73/1 33/70/1
f 15/35/9 1/2/9 33/70/9 40/87/9
f 11/25/6 13/30/6 39/84/6 38/82/6
f 7/16/4 9/20/4 37/79/4 36/76/4
f 43/95/3 44/97/3 60/134/3 59/132/3
f 38/83/20 39/85/20 47/104/20 46/101/20
f 36/77/21 37/80/21 45/98/21 44/96/21
f 34/72/22 35/75/22 43/94/22 42/91/22
f 39/85/23 40/88/23 48/106/23 47/104/23
f 37/80/24 38/83/24 46/101/24 45/98/24
f 35/75/25 36/77/25 44/96/25 43/94/25
f 33/70/26 34/73/26 42/92/26 41/90/26
f 56/126/4 49/109/4 65/145/4 72/162/4
f 41/90/1 42/92/1 58/129/1 57/127/1
f 48/107/9 41/90/9 57/127/9 64/142/9
f 46/102/6 47/105/6 63/140/6 62/138/6
f 44/97/4 45/99/4 61/136/4 60/134/4
f 42/93/2 43/95/2 59/132/2 58/130/2
f 47/105/8 48/108/8 64/143/8 63/140/8
f 45/100/5 46/103/5 62/139/5 61/137/5
f 50/112/18 49/110/18 57/128/18 58/131/18
f 51/113/18 50/112/18 58/131/18 59/133/18
f 52/115/18 51/113/18 59/133/18 60/135/18
f 53/118/18 52/115/18 60/135/18 61/137/18
f 54/120/18 53/118/18 61/137/18 62/139/18
f 55/122/18 54/120/18 62/139/18 63/141/18
f 56/125/18 55/122/18 63/141/18 64/144/18
f 49/110/18 56/125/18 64/144/18 57/128/18
f 65/146/18 66/148/18 67/149/18 68/151/18 69/154/18 70/156/18 71/158/18 72/161/18
f 54/121/2 55/123/2 71/159/2 70/157/2
f 52/116/9 53/119/9 69/155/9 68/152/9
f 50/111/6 51/114/6 67/150/6 66/147/6
f 55/124/3 56/126/3 72/162/3 71/160/3
f 53/119/1 54/121/1 70/157/1 69/155/1
f 51/114/8 52/117/8 68/153/8 67/150/8
f 49/110/5 50/112/5 66/148/5 65/146/5
