# Blender 3.5.1
# www.blender.org
mtllib Screen.mtl
o Screen
v -0.875279 -0.173710 0.020191
v -0.875279 0.177534 0.020191
v -0.903852 -0.202282 -0.003792
v -0.903852 0.206107 -0.003792
v 0.880454 -0.173710 0.020191
v 0.880454 0.177534 0.020191
v 0.909026 -0.202282 -0.003792
v 0.909026 0.206107 -0.003792
v -0.903852 -0.202282 0.020191
v -0.903852 0.206107 0.020191
v 0.909026 0.206107 0.020191
v 0.909026 -0.202282 0.020191
v -0.875279 -0.173710 0.003593
v -0.875279 0.177534 0.003593
v 0.880454 0.177534 0.003593
v 0.880454 -0.173710 0.003593
vn -1.0000 -0.0000 -0.0000
vn -0.0000 -0.0000 -1.0000
vn 1.0000 -0.0000 -0.0000
vn -0.0000 1.0000 -0.0000
vn -0.0000 -1.0000 -0.0000
vn -0.0000 -0.0000 1.0000
vt 0.392491 0.996060
vt 0.607509 0.996060
vt 0.375000 0.250000
vt 0.125000 0.500000
vt 0.625000 0.250000
vt 0.875000 0.500000
vt 0.392491 0.753940
vt 0.607509 0.753940
vt 0.375000 0.500000
vt 0.625000 0.500000
vt 0.375000 0.000000
vt 0.125000 0.750000
vt 0.375000 1.000000
vt 0.625000 0.000000
vt 0.875000 0.750000
vt 0.625000 1.000000
vt 0.625000 0.750000
vt 0.375000 0.750000
vt 0.392491 0.996060
vt 0.607509 0.996060
vt 0.607509 0.753940
vt 0.392491 0.753940
s 0
usemtl Screen
f 9/11/1 10/14/1 4/5/1 3/3/1
f 3/3/2 4/5/2 8/10/2 7/9/2
f 7/9/3 8/10/3 11/17/3 12/18/3
f 1/1/4 5/7/4 16/22/4 13/19/4
f 3/4/5 7/9/5 12/18/5 9/12/5
f 8/10/4 4/6/4 10/15/4 11/17/4
f 1/1/6 2/2/6 10/16/6 9/13/6
f 6/8/6 5/7/6 12/18/6 11/17/6
f 5/7/6 1/1/6 9/13/6 12/18/6
f 2/2/6 6/8/6 11/17/6 10/16/6
f 16/22/6 15/21/6 14/20/6 13/19/6
f 2/2/3 1/1/3 13/19/3 14/20/3
f 6/8/5 2/2/5 14/20/5 15/21/5
f 5/7/1 6/8/1 15/21/1 16/22/1
