# Blender v2.68 (sub 0) OBJ File: 'asteroid2.blend'
# www.blender.org
mtllib asteroid.mtl
o Cube.001
v -0.034924 -0.024083 0.000698
v 0.459411 0.045381 -0.083082
v 0.002252 0.096136 0.419496
v -0.498737 -0.003328 0.075985
v -0.055892 0.140504 -0.341861
v 0.426699 0.124323 -0.413916
v 0.429171 0.146169 0.295905
v -0.378671 0.137199 0.528199
v -0.508406 0.098213 -0.350088
v -0.028936 1.998696 -0.044295
v -0.228557 1.884646 -0.329141
v -0.481529 1.945009 0.092765
v 0.161675 1.989951 0.313717
v 0.369933 1.898099 -0.097514
v 0.217886 1.839315 -0.405029
v -0.599853 1.817939 -0.255602
v -0.256171 1.942316 0.552508
v 0.481248 1.868976 0.198900
v 0.805129 0.982389 -0.157363
v 0.829972 0.999425 -0.513445
v 0.899751 1.394415 -0.137585
v 1.011834 1.028899 0.199247
v 0.920067 0.544197 -0.183700
v 0.857431 0.579750 -0.463314
v 0.786703 1.411456 -0.499337
v 0.995449 1.439412 0.213584
v 0.889400 0.587812 0.186131
v 0.162778 1.130691 0.637117
v 0.674948 1.146869 0.705741
v 0.269961 1.510620 0.732134
v -0.212935 1.030987 0.929024
v 0.089009 0.672079 0.794999
v 0.506063 0.680126 0.703087
v 0.649866 1.538120 0.621759
v -0.112145 1.416848 0.975042
v -0.266258 0.626938 0.911167
v -1.072243 0.957876 0.184462
v -0.887384 0.959955 0.591621
v -0.959528 1.395781 0.196166
v -1.030353 0.928956 -0.315504
v -0.892711 0.592923 0.141088
v -0.851361 0.569696 0.587398
v -0.773956 1.363787 0.648856
v -0.973454 1.321228 -0.321536
v -1.090838 0.544933 -0.277917
v -0.144220 0.995194 -1.058459
v 0.283600 1.044686 -1.080468
v -0.087504 0.623944 -0.913093
v -0.511407 0.974513 -0.941875
v -0.219513 1.371986 -0.923881
v 0.202487 1.408427 -0.964021
v 0.346973 0.618068 -0.935633
v -0.479976 0.591224 -0.851199
v -0.506132 1.333445 -0.699081
v 0.766752 0.283245 -0.432803
v 0.813213 0.239831 -0.138464
v 0.798452 0.276069 0.214615
v 0.362140 0.330620 -0.660184
v -0.066658 0.285860 -0.683224
v -0.471941 0.267628 -0.660348
v 0.669099 0.627364 -0.683315
v 0.709103 1.027576 -0.887854
v 0.575921 1.419085 -0.786702
v 0.395701 0.370450 0.572318
v 0.032508 0.318723 0.733493
v -0.261683 0.390842 0.740104
v 0.775245 0.661857 0.494056
v 0.953363 1.084484 0.542304
v 0.904697 1.480084 0.479265
v -0.682484 0.282529 0.562861
v -0.865020 0.201563 0.142917
v -0.882735 0.244079 -0.278039
v -0.566906 0.621183 0.820858
v -0.599465 0.969645 0.854176
v -0.536177 1.378069 0.933846
v -0.834105 0.581632 -0.634578
v -0.835667 0.957414 -0.687032
v -0.818650 1.291083 -0.587238
v 0.589547 1.719241 -0.467757
v 0.694220 1.719822 -0.105171
v 0.782158 1.728075 0.185792
v 0.141862 1.586815 -0.639703
v -0.305133 1.672539 -0.594134
v -0.662195 1.644004 -0.516555
v 0.573051 1.776661 0.451782
v 0.272955 1.853597 0.610229
v -0.105784 1.736564 0.856188
v -0.543263 1.673710 0.662813
v -0.722848 1.683693 0.167877
v -0.844586 1.637045 -0.254062
v 0.641425 0.382595 -0.605260
v 0.674705 0.405868 0.455053
v -0.478091 0.471009 0.688643
v -0.753689 0.351435 -0.538160
v 0.436908 1.631209 -0.660251
v 0.796950 1.725985 0.378098
v -0.467096 1.668089 0.940451
v -0.841541 1.570577 -0.467891
vt 0.686508 0.000000
vt 0.722681 0.059646
vt 0.651099 0.106797
vt 0.615573 0.059783
vt 0.610018 0.148392
vt 0.568274 0.118282
vt 0.754225 0.121184
vt 0.683421 0.149976
vt 0.640637 0.166269
vt 0.390252 0.490532
vt 0.456295 0.555730
vt 0.397020 0.591581
vt 0.333133 0.546903
vt 0.353421 0.632449
vt 0.290768 0.602172
vt 0.494457 0.619286
vt 0.439340 0.637314
vt 0.397464 0.654168
vt 0.112196 0.000000
vt 0.160647 0.060421
vt 0.115384 0.110005
vt 0.051677 0.057242
vt 0.081295 0.149652
vt 0.011426 0.122466
vt 0.198249 0.119431
vt 0.155512 0.149793
vt 0.123163 0.168872
vt 0.460276 0.000000
vt 0.514562 0.073701
vt 0.444627 0.106818
vt 0.398741 0.040370
vt 0.395691 0.132739
vt 0.344724 0.086183
vt 0.542356 0.148385
vt 0.474395 0.162098
vt 0.429091 0.165196
vt 0.684736 0.509574
vt 0.625702 0.458715
vt 0.679442 0.426594
vt 0.744060 0.474997
vt 0.715838 0.381156
vt 0.781254 0.423255
vt 0.578029 0.407579
vt 0.636314 0.380144
vt 0.672600 0.364020
vt 0.322263 0.490532
vt 0.321220 0.425691
vt 0.380270 0.399250
vt 0.401408 0.461460
vt 0.412218 0.365140
vt 0.454738 0.423271
vt 0.308448 0.364574
vt 0.367719 0.351567
vt 0.393561 0.340321
vt 0.168752 0.506429
vt 0.101069 0.449270
vt 0.169560 0.399842
vt 0.224405 0.456445
vt 0.199588 0.354010
vt 0.257874 0.402672
vt 0.063526 0.397856
vt 0.135115 0.353817
vt 0.162980 0.331761
vt 0.379683 1.000000
vt 0.343165 0.940128
vt 0.390562 0.902302
vt 0.424328 0.943891
vt 0.417050 0.858744
vt 0.456448 0.887619
vt 0.314097 0.887264
vt 0.366911 0.863652
vt 0.395030 0.843857
vt 0.542356 0.263807
vt 0.550875 0.178557
vt 0.599430 0.195300
vt 0.605693 0.262468
vt 0.644579 0.205801
vt 0.660860 0.266408
vt 0.612324 0.327781
vt 0.549558 0.342235
vt 0.666393 0.322809
vt 0.511513 0.753633
vt 0.488268 0.826683
vt 0.431687 0.811277
vt 0.445535 0.757018
vt 0.395142 0.808707
vt 0.399110 0.760298
vt 0.450043 0.687623
vt 0.511513 0.673445
vt 0.397257 0.696575
vt 0.272209 0.754414
vt 0.276105 0.665692
vt 0.344601 0.689612
vt 0.354972 0.762943
vt 0.357668 0.819132
vt 0.293466 0.825459
vt 0.272209 0.258350
vt 0.272061 0.335564
vt 0.203353 0.306386
vt 0.189065 0.250266
vt 0.148854 0.302570
vt 0.129690 0.250262
vt 0.167945 0.193261
vt 0.228684 0.177713
vt 0.124262 0.201175
vt 0.000000 0.265283
vt 0.000000 0.192028
vt 0.072856 0.197311
vt 0.072269 0.255347
vt 0.099966 0.311332
vt 0.026752 0.341429
vt 0.532075 0.294652
vt 0.498088 0.370392
vt 0.430479 0.317491
vt 0.454165 0.262536
vt 0.388209 0.298896
vt 0.392534 0.248386
vt 0.469950 0.210234
vt 0.542356 0.220611
vt 0.414716 0.200101
vt 0.791446 0.267628
vt 0.791446 0.341453
vt 0.724785 0.325251
vt 0.722164 0.270764
vt 0.706185 0.207616
vt 0.778300 0.194326
vt 0.272209 0.214390
vt 0.298729 0.146512
vt 0.358885 0.176656
vt 0.333648 0.231638
vt 0.336584 0.299849
vt 0.273893 0.288705
vn 0.046968 -0.998474 -0.028962
vn 0.012635 -0.915525 -0.401990
vn 0.185553 -0.879208 -0.438795
vn 0.268624 -0.962523 -0.036775
vn 0.655416 -0.607410 -0.448836
vn 0.747612 -0.662679 -0.043397
vn 0.006958 -0.749077 -0.662404
vn 0.183966 -0.700278 -0.689718
vn 0.486679 -0.517624 -0.703665
vn 0.319712 -0.853542 0.411328
vn 0.122288 -0.881222 0.456557
vn 0.366283 -0.570788 0.734825
vn 0.189276 -0.580981 0.791589
vn 0.715384 -0.610309 0.340159
vn 0.573656 -0.505966 0.644093
vn -0.172460 -0.804071 0.568926
vn -0.232002 -0.971557 0.047090
vn -0.543443 -0.595386 0.591723
vn -0.737999 -0.646352 0.193823
vn -0.075900 -0.572741 0.816187
vn -0.290078 -0.536729 0.792291
vn -0.215308 -0.906461 -0.363201
vn -0.211432 -0.713187 -0.668294
vn -0.707572 -0.669271 -0.226691
vn -0.533219 -0.589770 -0.606464
vn 0.023591 0.986877 -0.159703
vn 0.306467 0.933866 -0.184271
vn 0.122257 0.867977 -0.481246
vn -0.093478 0.883297 -0.459365
vn 0.021180 0.774194 -0.632557
vn -0.185522 0.714743 -0.674276
vn 0.631672 0.744713 -0.215247
vn 0.503739 0.752220 -0.424665
vn 0.229652 0.740074 -0.632069
vn -0.436079 0.860103 -0.264626
vn -0.422193 0.905911 0.031709
vn -0.765282 0.628498 -0.138890
vn -0.732566 0.656545 0.179571
vn -0.400281 0.643208 -0.652699
vn -0.677999 0.486160 -0.551286
vn -0.234962 0.916044 0.324992
vn 0.172826 0.972076 0.158544
vn 0.117557 0.607349 0.785668
vn 0.327921 0.723319 0.607654
vn -0.644490 0.659963 0.386059
vn -0.381146 0.527696 0.759087
vn 0.378246 0.925260 0.028291
vn 0.652120 0.755913 -0.057466
vn 0.411481 0.768212 0.490402
vn 0.601947 0.723655 0.337565
vn 0.981170 0.012177 -0.192663
vn 0.985290 -0.132664 -0.107578
vn 0.922788 -0.144505 -0.357128
vn 0.957457 0.038606 -0.285867
vn 0.657369 -0.324107 -0.680288
vn 0.699759 0.023682 -0.713981
vn 0.876278 0.338328 -0.342936
vn 0.932249 0.235786 -0.274361
vn 0.541002 0.508682 -0.669698
vn 0.956908 0.280313 -0.075716
vn 0.994903 -0.098025 -0.023408
vn 0.773247 0.363689 0.519425
vn 0.805689 -0.076540 0.587359
vn 0.959838 -0.233314 0.155675
vn 0.712455 -0.332255 0.618061
vn 0.308634 -0.040742 0.950285
vn 0.279794 -0.120334 0.952483
vn 0.325510 -0.190741 0.926084
vn 0.321238 0.015717 0.946837
vn 0.360057 0.324900 0.874508
vn 0.371410 0.132542 0.918943
vn 0.290353 -0.016968 0.956755
vn 0.184484 -0.097568 0.977966
vn -0.472854 0.134129 0.870846
vn -0.476363 -0.056215 0.877438
vn 0.013153 -0.267495 0.963439
vn -0.405621 -0.314829 0.858089
vn -0.981597 -0.000946 0.190893
vn -0.939238 -0.256111 0.228523
vn -0.783746 -0.303964 0.541551
vn -0.847835 -0.028779 0.529405
vn -0.814753 0.311197 0.489181
vn -0.899838 0.392468 0.190313
vn -0.934202 0.278146 -0.223334
vn -0.969390 0.049165 -0.240516
vn -0.675619 0.301035 -0.672933
vn -0.710105 0.099857 -0.696951
vn -0.952940 -0.257363 -0.160039
vn -0.674978 -0.274972 -0.684652
vn -0.199103 -0.004151 -0.979949
vn -0.246864 0.526994 -0.813196
vn 0.094211 0.568834 -0.817011
vn 0.198553 0.011841 -0.980010
vn 0.238807 -0.462569 -0.853786
vn -0.064058 -0.457991 -0.886624
vn -0.319193 -0.383740 -0.866482
vn -0.445448 0.065310 -0.892911
vn -0.433393 0.411847 -0.801538
usemtl Material.001
s 1
f 1/1/1 5/2/2 6/3/3 2/4/4
f 2/4/4 6/3/3 55/5/5 56/6/6
f 5/2/2 59/7/7 58/8/8 6/3/3
f 6/3/3 58/8/8 91/9/9 55/5/5
f 1/10/1 2/11/4 7/12/10 3/13/11
f 3/13/11 7/12/10 64/14/12 65/15/13
f 2/11/4 56/16/6 57/17/14 7/12/10
f 7/12/10 57/17/14 92/18/15 64/14/12
f 1/19/1 3/20/11 8/21/16 4/22/17
f 4/22/17 8/21/16 70/23/18 71/24/19
f 3/20/11 65/25/13 66/26/20 8/21/16
f 8/21/16 66/26/20 93/27/21 70/23/18
f 1/28/1 4/29/17 9/30/22 5/31/2
f 5/31/2 9/30/22 60/32/23 59/33/7
f 4/29/17 71/34/19 72/35/24 9/30/22
f 9/30/22 72/35/24 94/36/25 60/32/23
f 10/37/26 14/38/27 15/39/28 11/40/29
f 11/40/29 15/39/28 82/41/30 83/42/31
f 14/38/27 80/43/32 79/44/33 15/39/28
f 15/39/28 79/44/33 95/45/34 82/41/30
f 10/46/26 11/47/29 16/48/35 12/49/36
f 12/49/36 16/48/35 90/50/37 89/51/38
f 11/47/29 83/52/31 84/53/39 16/48/35
f 16/48/35 84/53/39 98/54/40 90/50/37
f 10/55/26 12/56/36 17/57/41 13/58/42
f 13/58/42 17/57/41 87/59/43 86/60/44
f 12/56/36 89/61/38 88/62/45 17/57/41
f 17/57/41 88/62/45 97/63/46 87/59/43
f 10/64/26 13/65/42 18/66/47 14/67/27
f 14/67/27 18/66/47 81/68/48 80/69/32
f 13/65/42 86/70/44 85/71/49 18/66/47
f 18/66/47 85/71/49 96/72/50 81/68/48
f 19/73/51 23/74/52 24/75/53 20/76/54
f 20/76/54 24/75/53 61/77/55 62/78/56
f 23/74/52 56/6/6 55/5/5 24/75/53
f 24/75/53 55/5/5 91/9/9 61/77/55
f 19/73/51 20/76/54 25/79/57 21/80/58
f 21/80/58 25/79/57 79/44/33 80/43/32
f 20/76/54 62/78/56 63/81/59 25/79/57
f 25/79/57 63/81/59 95/45/34 79/44/33
f 19/82/51 21/83/58 26/84/60 22/85/61
f 22/85/61 26/84/60 69/86/62 68/87/63
f 21/83/58 80/69/32 81/68/48 26/84/60
f 26/84/60 81/68/48 96/72/50 69/86/62
f 19/82/51 22/85/61 27/88/64 23/89/52
f 23/89/52 27/88/64 57/17/14 56/16/6
f 22/85/61 68/87/63 67/90/65 27/88/64
f 27/88/64 67/90/65 92/18/15 57/17/14
f 28/91/66 32/92/67 33/93/68 29/94/69
f 29/94/69 33/93/68 67/90/65 68/87/63
f 32/92/67 65/15/13 64/14/12 33/93/68
f 33/93/68 64/14/12 92/18/15 67/90/65
f 28/91/66 29/94/69 34/95/70 30/96/71
f 30/96/71 34/95/70 85/71/49 86/70/44
f 29/94/69 68/87/63 69/86/62 34/95/70
f 34/95/70 69/86/62 96/72/50 85/71/49
f 28/97/66 30/98/71 35/99/72 31/100/73
f 31/100/73 35/99/72 75/101/74 74/102/75
f 30/98/71 86/60/44 87/59/43 35/99/72
f 35/99/72 87/59/43 97/63/46 75/101/74
f 28/97/66 31/100/73 36/103/76 32/104/67
f 32/104/67 36/103/76 66/26/20 65/25/13
f 31/100/73 74/102/75 73/105/77 36/103/76
f 36/103/76 73/105/77 93/27/21 66/26/20
f 37/106/78 41/107/79 42/108/80 38/109/81
f 38/109/81 42/108/80 73/105/77 74/102/75
f 41/107/79 71/24/19 70/23/18 42/108/80
f 42/108/80 70/23/18 93/27/21 73/105/77
f 37/106/78 38/109/81 43/110/82 39/111/83
f 39/111/83 43/110/82 88/62/45 89/61/38
f 38/109/81 74/102/75 75/101/74 43/110/82
f 43/110/82 75/101/74 97/63/46 88/62/45
f 37/112/78 39/113/83 44/114/84 40/115/85
f 40/115/85 44/114/84 78/116/86 77/117/87
f 39/113/83 89/51/38 90/50/37 44/114/84
f 44/114/84 90/50/37 98/54/40 78/116/86
f 37/112/78 40/115/85 45/118/88 41/119/79
f 41/119/79 45/118/88 72/35/24 71/34/19
f 40/115/85 77/117/87 76/120/89 45/118/88
f 45/118/88 76/120/89 94/36/25 72/35/24
f 46/121/90 50/122/91 51/123/92 47/124/93
f 47/124/93 51/123/92 63/81/59 62/78/56
f 50/122/91 83/42/31 82/41/30 51/123/92
f 51/123/92 82/41/30 95/45/34 63/81/59
f 46/121/90 47/124/93 52/125/94 48/126/95
f 48/126/95 52/125/94 58/8/8 59/7/7
f 47/124/93 62/78/56 61/77/55 52/125/94
f 52/125/94 61/77/55 91/9/9 58/8/8
f 46/127/90 48/128/95 53/129/96 49/130/97
f 49/130/97 53/129/96 76/120/89 77/117/87
f 48/128/95 59/33/7 60/32/23 53/129/96
f 53/129/96 60/32/23 94/36/25 76/120/89
f 46/127/90 49/130/97 54/131/98 50/132/91
f 50/132/91 54/131/98 84/53/39 83/52/31
f 49/130/97 77/117/87 78/116/86 54/131/98
f 54/131/98 78/116/86 98/54/40 84/53/39
