# Blender 3.5.1
# www.blender.org
mtllib Skybox.mtl
o Skybox
v -100.000000 -100.000000 100.000000
v -100.000000 100.000000 100.000000
v -100.000000 -100.000000 -100.000000
v -100.000000 100.000000 -100.000000
v 100.000000 -100.000000 100.000000
v 100.000000 100.000000 100.000000
v 100.000000 -100.000000 -100.000000
v 100.000000 100.000000 -100.000000
vn 1.0000 -0.0000 -0.0000
vn -0.0000 -0.0000 1.0000
vn -1.0000 -0.0000 -0.0000
vn -0.0000 -0.0000 -1.0000
vn -0.0000 1.0000 -0.0000
vn -0.0000 -1.0000 -0.0000
vt 0.999996 0.333336
vt 0.000005 0.333336
vt 0.250006 0.000003
vt 0.999996 0.666669
vt 0.000005 0.666670
vt 0.250006 1.000003
vt 0.750005 0.333336
vt 0.500004 0.000003
vt 0.750005 0.666670
vt 0.500004 1.000003
vt 0.250006 0.333336
vt 0.250006 0.666670
vt 0.500004 0.333336
vt 0.500004 0.666670
s 0
usemtl Skybox
f 1/1/1 3/7/1 4/9/1 2/4/1
f 3/7/2 7/13/2 8/14/2 4/9/2
f 7/13/3 5/11/3 6/12/3 8/14/3
f 5/11/4 1/2/4 2/5/4 6/12/4
f 3/8/5 1/3/5 5/11/5 7/13/5
f 8/14/6 6/12/6 2/6/6 4/10/6
